<svg id="raincloud" xmlns="http://www.w3.org/2000/svg" width="166" height="156.5" viewBox="0 0 166 156.5">
    <style type="text/css">
        #cloud{
            fill: #add4d6;
        }
        #rain{
            animation: blink 3s infinite;
        }
        @keyframes blink {
          0% {
            fill: red;
          }
          50% {
            fill: blue;
          }
          100% {
            fill: red;
          }
    </style>
  <path id="cloud" d="M121.2 6c-8.7 0-16.8 3-23.3 7.8C91.4 9 83.5 6.3 75 6.3c-11.2 0-21.4 5-28.5 12.6C26.3 19.2 10 35.7 10 56c0 20.5 16.7 37.2 37.2 37.2 2.7 0 5.3-.3 7.8-.8 7 6.6 16.3 10.7 26.7 10.7 14.8 0 27.6-8.3 34-20.5 2 .3 3.7.4 5.6.4 21.3 0 38.6-17.3 38.6-38.6C159.7 23.3 142.4 6 121 6z"/>
  <g id="rain" fill="#009BBD">
    <path id="rain3" class="rain" d="M49 138.2c0 2.8-2.2 5-4.7 5s-4.6-2.2-4.6-5v-19.7c0-2.8 2-5 4.6-5s4.6 2.2 4.6 5v19.7z"/>
    <path id="rain2" class="rain" d="M74.8 145.4c0 2.8-2 5-4.6 5-2.5 0-4.6-2.2-4.6-5v-19.7c0-2.8 2-5 4.6-5 2.5 0 4.6 2.2 4.6 5v19.7z"/>
    <path id="rain1" class="rain" d="M109.3 134.4c0 2.8-2 5-4.6 5-2.5 0-4.6-2.2-4.6-5v-19.7c0-2.8 2.2-5 4.7-5s4.6 2.2 4.6 5v19.7z"/>
  </g>
</svg>
